<svg width="167" height="25" viewBox="0 0 167 25" fill="none" xmlns="http://www.w3.org/2000/svg">
<path d="M13.84 14.848H5.328V24H0.464V1.664H5.328V10.56H13.84V1.664H18.704V24H13.84V14.848ZM30.1803 24.384C28.9429 24.384 27.8336 24.1813 26.8523 23.776C25.8923 23.3707 25.0709 22.784 24.3883 22.016C23.7269 21.248 23.2149 20.32 22.8523 19.232C22.4896 18.144 22.3083 16.928 22.3083 15.584C22.3083 14.24 22.4896 13.024 22.8523 11.936C23.2149 10.848 23.7269 9.93067 24.3883 9.184C25.0709 8.416 25.8923 7.82933 26.8523 7.424C27.8336 7.01867 28.9429 6.816 30.1803 6.816C31.4176 6.816 32.5163 7.01867 33.4763 7.424C34.4576 7.82933 35.2789 8.416 35.9403 9.184C36.6229 9.93067 37.1456 10.848 37.5083 11.936C37.8709 13.024 38.0522 14.24 38.0522 15.584C38.0522 16.928 37.8709 18.144 37.5083 19.232C37.1456 20.32 36.6229 21.248 35.9403 22.016C35.2789 22.784 34.4576 23.3707 33.4763 23.776C32.5163 24.1813 31.4176 24.384 30.1803 24.384ZM30.1803 20.64C31.1189 20.64 31.8443 20.352 32.3563 19.776C32.8683 19.2 33.1243 18.3787 33.1243 17.312V13.888C33.1243 12.8213 32.8683 12 32.3563 11.424C31.8443 10.848 31.1189 10.56 30.1803 10.56C29.2416 10.56 28.5163 10.848 28.0043 11.424C27.4923 12 27.2363 12.8213 27.2363 13.888V17.312C27.2363 18.3787 27.4923 19.2 28.0043 19.776C28.5163 20.352 29.2416 20.64 30.1803 20.64ZM41.4268 24V7.2H46.1628V10.048H46.3548C46.6534 9.152 47.1654 8.39467 47.8908 7.776C48.6161 7.136 49.6081 6.816 50.8668 6.816C52.0188 6.816 53.0001 7.104 53.8108 7.68C54.6214 8.256 55.2081 9.09867 55.5708 10.208H55.6667C55.8161 9.73867 56.0401 9.30133 56.3388 8.896C56.6588 8.46933 57.0428 8.10667 57.4908 7.808C57.9388 7.50933 58.4401 7.27467 58.9948 7.104C59.5494 6.912 60.1468 6.816 60.7868 6.816C62.4081 6.816 63.6454 7.392 64.4988 8.544C65.3734 9.696 65.8108 11.3387 65.8108 13.472V24H61.0748V13.856C61.0748 11.7227 60.3068 10.656 58.7708 10.656C58.0668 10.656 57.4268 10.8587 56.8507 11.264C56.2748 11.6693 55.9868 12.288 55.9868 13.12V24H51.2508V13.856C51.2508 11.7227 50.4828 10.656 48.9468 10.656C48.6054 10.656 48.2641 10.7093 47.9228 10.816C47.6028 10.9013 47.3041 11.0507 47.0268 11.264C46.7708 11.4773 46.5574 11.744 46.3868 12.064C46.2374 12.3627 46.1628 12.7147 46.1628 13.12V24H41.4268ZM77.0285 24.384C75.7485 24.384 74.6072 24.1813 73.6045 23.776C72.6018 23.3493 71.7485 22.7627 71.0445 22.016C70.3618 21.248 69.8392 20.32 69.4765 19.232C69.1352 18.144 68.9645 16.928 68.9645 15.584C68.9645 14.2613 69.1352 13.0667 69.4765 12C69.8178 10.912 70.3192 9.984 70.9805 9.216C71.6632 8.448 72.4952 7.86133 73.4765 7.456C74.4578 7.02933 75.5778 6.816 76.8365 6.816C78.2232 6.816 79.4072 7.05067 80.3885 7.52C81.3912 7.98933 82.2018 8.61867 82.8205 9.408C83.4605 10.1973 83.9192 11.1147 84.1965 12.16C84.4952 13.184 84.6445 14.2613 84.6445 15.392V16.8H73.8605V17.056C73.8605 18.1653 74.1592 19.0507 74.7565 19.712C75.3538 20.352 76.2925 20.672 77.5725 20.672C78.5538 20.672 79.3538 20.48 79.9725 20.096C80.5912 19.6907 81.1672 19.2107 81.7005 18.656L84.0685 21.6C83.3218 22.4747 82.3405 23.1573 81.1245 23.648C79.9298 24.1387 78.5645 24.384 77.0285 24.384ZM76.9325 10.304C75.9725 10.304 75.2152 10.624 74.6605 11.264C74.1272 11.8827 73.8605 12.7147 73.8605 13.76V14.016H79.7485V13.728C79.7485 12.704 79.5138 11.8827 79.0445 11.264C78.5965 10.624 77.8925 10.304 76.9325 10.304ZM87.7898 16.544V11.936H97.2938V16.544H87.7898Z" fill="#021526"/>
<path d="M109.339 5.984V24H104.475V5.984H98.4265V1.664H115.387V5.984H109.339ZM128.624 24C127.771 24 127.056 23.7333 126.48 23.2C125.925 22.6667 125.573 21.952 125.424 21.056H125.232C124.976 22.144 124.411 22.976 123.536 23.552C122.661 24.1067 121.584 24.384 120.304 24.384C118.619 24.384 117.328 23.936 116.432 23.04C115.536 22.144 115.088 20.96 115.088 19.488C115.088 17.7173 115.728 16.4053 117.008 15.552C118.309 14.6773 120.069 14.24 122.288 14.24H124.944V13.184C124.944 12.3733 124.731 11.7333 124.304 11.264C123.877 10.7733 123.163 10.528 122.16 10.528C121.221 10.528 120.475 10.7307 119.92 11.136C119.365 11.5413 118.907 12 118.544 12.512L115.728 10.016C116.411 9.01333 117.264 8.23467 118.288 7.68C119.333 7.104 120.741 6.816 122.512 6.816C124.901 6.816 126.693 7.33867 127.888 8.384C129.083 9.42933 129.68 10.9547 129.68 12.96V20.32H131.248V24H128.624ZM122.064 21.088C122.853 21.088 123.525 20.9173 124.08 20.576C124.656 20.2347 124.944 19.68 124.944 18.912V16.928H122.64C120.784 16.928 119.856 17.5573 119.856 18.816V19.296C119.856 19.9147 120.048 20.3733 120.432 20.672C120.816 20.9493 121.36 21.088 122.064 21.088ZM140.123 24.384C138.501 24.384 137.136 24.128 136.027 23.616C134.917 23.0827 133.925 22.336 133.051 21.376L135.835 18.56C136.432 19.2213 137.093 19.744 137.819 20.128C138.544 20.512 139.365 20.704 140.283 20.704C141.221 20.704 141.872 20.5653 142.235 20.288C142.597 19.9893 142.779 19.5947 142.779 19.104C142.779 18.3147 142.213 17.8453 141.083 17.696L139.259 17.472C135.483 17.0027 133.595 15.2747 133.595 12.288C133.595 11.4773 133.744 10.7413 134.043 10.08C134.363 9.39733 134.8 8.82133 135.355 8.352C135.931 7.86133 136.613 7.488 137.403 7.232C138.213 6.95467 139.12 6.816 140.123 6.816C140.997 6.816 141.765 6.88 142.427 7.008C143.109 7.11467 143.707 7.28533 144.219 7.52C144.752 7.73333 145.232 8.01067 145.659 8.352C146.107 8.672 146.544 9.03467 146.971 9.44L144.251 12.224C143.717 11.6907 143.109 11.2747 142.427 10.976C141.765 10.656 141.083 10.496 140.379 10.496C139.568 10.496 138.992 10.624 138.651 10.88C138.309 11.136 138.139 11.4773 138.139 11.904C138.139 12.352 138.256 12.704 138.491 12.96C138.747 13.1947 139.216 13.3653 139.899 13.472L141.787 13.728C145.477 14.2187 147.323 15.904 147.323 18.784C147.323 19.5947 147.152 20.3413 146.811 21.024C146.469 21.7067 145.979 22.304 145.339 22.816C144.72 23.3067 143.963 23.6907 143.067 23.968C142.192 24.2453 141.211 24.384 140.123 24.384ZM150.552 0.32H155.288V14.304H155.48L157.56 11.2L160.92 7.2H166.168L160.568 13.632L166.808 24H161.176L157.4 16.896L155.288 19.264V24H150.552V0.32Z" fill="#0360D9"/>
</svg>
