<svg width="170" height="60" viewBox="0 0 170 60" fill="none" xmlns="http://www.w3.org/2000/svg">
<g filter="url(#filter0_d_328_32)">
<path d="M5.99998 49.9916C27.5748 45.3098 82.4436 37.5015 129.32 43.7225" stroke="#0360D9" stroke-width="3" stroke-linecap="round"/>
</g>
<path d="M16.84 23.848H8.328V33H3.464V10.664H8.328V19.56H16.84V10.664H21.704V33H16.84V23.848ZM33.1803 33.384C31.9429 33.384 30.8336 33.1813 29.8523 32.776C28.8923 32.3707 28.0709 31.784 27.3883 31.016C26.7269 30.248 26.2149 29.32 25.8523 28.232C25.4896 27.144 25.3083 25.928 25.3083 24.584C25.3083 23.24 25.4896 22.024 25.8523 20.936C26.2149 19.848 26.7269 18.9307 27.3883 18.184C28.0709 17.416 28.8923 16.8293 29.8523 16.424C30.8336 16.0187 31.9429 15.816 33.1803 15.816C34.4176 15.816 35.5163 16.0187 36.4763 16.424C37.4576 16.8293 38.2789 17.416 38.9403 18.184C39.6229 18.9307 40.1456 19.848 40.5083 20.936C40.8709 22.024 41.0522 23.24 41.0522 24.584C41.0522 25.928 40.8709 27.144 40.5083 28.232C40.1456 29.32 39.6229 30.248 38.9403 31.016C38.2789 31.784 37.4576 32.3707 36.4763 32.776C35.5163 33.1813 34.4176 33.384 33.1803 33.384ZM33.1803 29.64C34.1189 29.64 34.8443 29.352 35.3563 28.776C35.8683 28.2 36.1243 27.3787 36.1243 26.312V22.888C36.1243 21.8213 35.8683 21 35.3563 20.424C34.8443 19.848 34.1189 19.56 33.1803 19.56C32.2416 19.56 31.5163 19.848 31.0043 20.424C30.4923 21 30.2363 21.8213 30.2363 22.888V26.312C30.2363 27.3787 30.4923 28.2 31.0043 28.776C31.5163 29.352 32.2416 29.64 33.1803 29.64ZM44.4268 33V16.2H49.1628V19.048H49.3548C49.6534 18.152 50.1654 17.3947 50.8908 16.776C51.6161 16.136 52.6081 15.816 53.8668 15.816C55.0188 15.816 56.0001 16.104 56.8108 16.68C57.6214 17.256 58.2081 18.0987 58.5708 19.208H58.6667C58.8161 18.7387 59.0401 18.3013 59.3388 17.896C59.6588 17.4693 60.0428 17.1067 60.4908 16.808C60.9388 16.5093 61.4401 16.2747 61.9948 16.104C62.5494 15.912 63.1468 15.816 63.7868 15.816C65.4081 15.816 66.6454 16.392 67.4988 17.544C68.3734 18.696 68.8108 20.3387 68.8108 22.472V33H64.0748V22.856C64.0748 20.7227 63.3068 19.656 61.7708 19.656C61.0668 19.656 60.4268 19.8587 59.8507 20.264C59.2748 20.6693 58.9868 21.288 58.9868 22.12V33H54.2508V22.856C54.2508 20.7227 53.4828 19.656 51.9468 19.656C51.6054 19.656 51.2641 19.7093 50.9228 19.816C50.6028 19.9013 50.3041 20.0507 50.0268 20.264C49.7708 20.4773 49.5574 20.744 49.3868 21.064C49.2374 21.3627 49.1628 21.7147 49.1628 22.12V33H44.4268ZM80.0285 33.384C78.7485 33.384 77.6072 33.1813 76.6045 32.776C75.6018 32.3493 74.7485 31.7627 74.0445 31.016C73.3618 30.248 72.8392 29.32 72.4765 28.232C72.1352 27.144 71.9645 25.928 71.9645 24.584C71.9645 23.2613 72.1352 22.0667 72.4765 21C72.8178 19.912 73.3192 18.984 73.9805 18.216C74.6632 17.448 75.4952 16.8613 76.4765 16.456C77.4578 16.0293 78.5778 15.816 79.8365 15.816C81.2232 15.816 82.4072 16.0507 83.3885 16.52C84.3912 16.9893 85.2018 17.6187 85.8205 18.408C86.4605 19.1973 86.9192 20.1147 87.1965 21.16C87.4952 22.184 87.6445 23.2613 87.6445 24.392V25.8H76.8605V26.056C76.8605 27.1653 77.1592 28.0507 77.7565 28.712C78.3538 29.352 79.2925 29.672 80.5725 29.672C81.5538 29.672 82.3538 29.48 82.9725 29.096C83.5912 28.6907 84.1672 28.2107 84.7005 27.656L87.0685 30.6C86.3218 31.4747 85.3405 32.1573 84.1245 32.648C82.9298 33.1387 81.5645 33.384 80.0285 33.384ZM79.9325 19.304C78.9725 19.304 78.2152 19.624 77.6605 20.264C77.1272 20.8827 76.8605 21.7147 76.8605 22.76V23.016H82.7485V22.728C82.7485 21.704 82.5138 20.8827 82.0445 20.264C81.5965 19.624 80.8925 19.304 79.9325 19.304ZM90.7898 25.544V20.936H100.294V25.544H90.7898Z" fill="#021526"/>
<path d="M112.339 14.984V33H107.475V14.984H101.427V10.664H118.387V14.984H112.339ZM131.624 33C130.771 33 130.056 32.7333 129.48 32.2C128.925 31.6667 128.573 30.952 128.424 30.056H128.232C127.976 31.144 127.411 31.976 126.536 32.552C125.661 33.1067 124.584 33.384 123.304 33.384C121.619 33.384 120.328 32.936 119.432 32.04C118.536 31.144 118.088 29.96 118.088 28.488C118.088 26.7173 118.728 25.4053 120.008 24.552C121.309 23.6773 123.069 23.24 125.288 23.24H127.944V22.184C127.944 21.3733 127.731 20.7333 127.304 20.264C126.877 19.7733 126.163 19.528 125.16 19.528C124.221 19.528 123.475 19.7307 122.92 20.136C122.365 20.5413 121.907 21 121.544 21.512L118.728 19.016C119.411 18.0133 120.264 17.2347 121.288 16.68C122.333 16.104 123.741 15.816 125.512 15.816C127.901 15.816 129.693 16.3387 130.888 17.384C132.083 18.4293 132.68 19.9547 132.68 21.96V29.32H134.248V33H131.624ZM125.064 30.088C125.853 30.088 126.525 29.9173 127.08 29.576C127.656 29.2347 127.944 28.68 127.944 27.912V25.928H125.64C123.784 25.928 122.856 26.5573 122.856 27.816V28.296C122.856 28.9147 123.048 29.3733 123.432 29.672C123.816 29.9493 124.36 30.088 125.064 30.088ZM143.123 33.384C141.501 33.384 140.136 33.128 139.027 32.616C137.917 32.0827 136.925 31.336 136.051 30.376L138.835 27.56C139.432 28.2213 140.093 28.744 140.819 29.128C141.544 29.512 142.365 29.704 143.283 29.704C144.221 29.704 144.872 29.5653 145.235 29.288C145.597 28.9893 145.779 28.5947 145.779 28.104C145.779 27.3147 145.213 26.8453 144.083 26.696L142.259 26.472C138.483 26.0027 136.595 24.2747 136.595 21.288C136.595 20.4773 136.744 19.7413 137.043 19.08C137.363 18.3973 137.8 17.8213 138.355 17.352C138.931 16.8613 139.613 16.488 140.403 16.232C141.213 15.9547 142.12 15.816 143.123 15.816C143.997 15.816 144.765 15.88 145.427 16.008C146.109 16.1147 146.707 16.2853 147.219 16.52C147.752 16.7333 148.232 17.0107 148.659 17.352C149.107 17.672 149.544 18.0347 149.971 18.44L147.251 21.224C146.717 20.6907 146.109 20.2747 145.427 19.976C144.765 19.656 144.083 19.496 143.379 19.496C142.568 19.496 141.992 19.624 141.651 19.88C141.309 20.136 141.139 20.4773 141.139 20.904C141.139 21.352 141.256 21.704 141.491 21.96C141.747 22.1947 142.216 22.3653 142.899 22.472L144.787 22.728C148.477 23.2187 150.323 24.904 150.323 27.784C150.323 28.5947 150.152 29.3413 149.811 30.024C149.469 30.7067 148.979 31.304 148.339 31.816C147.72 32.3067 146.963 32.6907 146.067 32.968C145.192 33.2453 144.211 33.384 143.123 33.384ZM153.552 9.32H158.288V23.304H158.48L160.56 20.2L163.92 16.2H169.168L163.568 22.632L169.808 33H164.176L160.4 25.896L158.288 28.264V33H153.552V9.32Z" fill="#0360D9"/>
<defs>
<filter id="filter0_d_328_32" x="0.499695" y="39.9133" width="134.321" height="19.5786" filterUnits="userSpaceOnUse" color-interpolation-filters="sRGB">
<feFlood flood-opacity="0" result="BackgroundImageFix"/>
<feColorMatrix in="SourceAlpha" type="matrix" values="0 0 0 0 0 0 0 0 0 0 0 0 0 0 0 0 0 0 127 0" result="hardAlpha"/>
<feOffset dy="4"/>
<feGaussianBlur stdDeviation="2"/>
<feComposite in2="hardAlpha" operator="out"/>
<feColorMatrix type="matrix" values="0 0 0 0 0 0 0 0 0 0 0 0 0 0 0 0 0 0 0.25 0"/>
<feBlend mode="normal" in2="BackgroundImageFix" result="effect1_dropShadow_328_32"/>
<feBlend mode="normal" in="SourceGraphic" in2="effect1_dropShadow_328_32" result="shape"/>
</filter>
</defs>
</svg>
